<svg width="213" height="35" viewBox="0 0 213 35" fill="none" xmlns="http://www.w3.org/2000/svg">
<g id="webdock-logo-positiv 1" clip-path="url(#clip0_3500_10841)">
<path id="Vector" d="M44.2215 0.308105H43.2052C43.0562 0.308904 42.9107 0.35356 42.7869 0.436499C42.6631 0.519438 42.5665 0.636989 42.5091 0.77449L28.7612 33.8041C28.7132 33.9191 28.6943 34.0442 28.706 34.1682C28.7178 34.2923 28.76 34.4115 28.8288 34.5154C28.8976 34.6193 28.9909 34.7047 29.1006 34.764C29.2102 34.8232 29.3327 34.8546 29.4573 34.8552H35.1723C36.4434 34.8556 37.6863 34.4796 38.7442 33.7748C39.8021 33.07 40.6277 32.0677 41.1169 30.8945L50.1661 9.21811C50.5727 8.23981 50.7316 7.17629 50.6288 6.12187C50.5259 5.06744 50.1645 4.05469 49.5765 3.1734C48.9885 2.29211 48.1922 1.56953 47.258 1.06971C46.3239 0.569897 45.2809 0.308296 44.2215 0.308105Z" fill="white"/>
<path id="Vector_2" d="M39.3482 0.308594L29.8117 0.308594C29.6627 0.309392 29.5173 0.354048 29.3935 0.436987C29.2697 0.519926 29.1731 0.637477 29.1157 0.774978L15.3608 33.8046C15.3128 33.9196 15.2939 34.0447 15.3056 34.1687C15.3174 34.2928 15.3596 34.412 15.4284 34.5159C15.4972 34.6198 15.5905 34.7052 15.7002 34.7645C15.8098 34.8237 15.9323 34.8551 16.0569 34.8557H25.5865C25.7355 34.8549 25.8809 34.8103 26.0047 34.7273C26.1285 34.6444 26.2251 34.5268 26.2826 34.3893L40.0443 1.34577C40.0894 1.23148 40.1061 1.10793 40.0929 0.985771C40.0797 0.863607 40.037 0.746479 39.9686 0.644452C39.9001 0.542426 39.8078 0.458553 39.6998 0.400051C39.5917 0.341548 39.4711 0.310163 39.3482 0.308594Z" fill="white"/>
<g id="Group">
<path id="Vector_3" d="M25.9281 2.98115L25.0092 0.767572C24.9523 0.63028 24.8556 0.513167 24.7315 0.431294C24.6075 0.349421 24.4618 0.306533 24.3131 0.30815L14.7627 0.30815C14.6395 0.306803 14.5179 0.336044 14.4088 0.39325C14.2996 0.450456 14.2064 0.533841 14.1374 0.635934C14.0685 0.738027 14.0259 0.855637 14.0135 0.978229C14.0012 1.10082 14.0194 1.22457 14.0666 1.33837L19.7676 15.0305C19.8214 15.1716 19.9167 15.2931 20.041 15.3788C20.1653 15.4645 20.3127 15.5104 20.4637 15.5104C20.6147 15.5104 20.7621 15.4645 20.8865 15.3788C21.0108 15.2931 21.1061 15.1716 21.1598 15.0305L25.935 3.55195C25.9715 3.46102 25.9896 3.3638 25.9884 3.26586C25.9872 3.16791 25.9667 3.07116 25.9281 2.98115Z" fill="white"/>
<path id="Vector_4" d="M11.6092 0.767572C11.5523 0.63028 11.4555 0.513167 11.3315 0.431294C11.2074 0.349421 11.0617 0.306533 10.9131 0.30815L1.36966 0.30815C1.24645 0.306803 1.12484 0.336044 1.01571 0.39325C0.906582 0.450456 0.813351 0.533841 0.744369 0.635934C0.675388 0.738026 0.632811 0.855637 0.620455 0.978229C0.608098 1.10082 0.626346 1.22457 0.673566 1.33837L13.078 31.1242C13.1317 31.2653 13.227 31.3868 13.3513 31.4725C13.4756 31.5582 13.6231 31.6041 13.774 31.6041C13.925 31.6041 14.0725 31.5582 14.1968 31.4725C14.3211 31.3868 14.4164 31.2653 14.4701 31.1242L19.2314 19.6456C19.269 19.5552 19.2883 19.4582 19.2883 19.3602C19.2883 19.2623 19.269 19.1653 19.2314 19.0748L11.6092 0.767572Z" fill="white"/>
</g>
<path id="Vector_5" d="M79.9863 8.15327H82.7707L85.8405 16.228L88.945 8.15327H91.7294L87.713 18.2536L91.6807 27.797L99.5257 7.99316H102.693L93.0242 31.2218H90.4764L85.8683 20.2723L81.2254 31.2218H78.6777L69.002 8.02101H72.1692L80.049 27.797L84.0028 18.2257L79.9863 8.15327Z" fill="white"/>
<path id="Vector_6" d="M109.8 31.5492C108.588 31.5657 107.386 31.3286 106.271 30.8531C105.237 30.4064 104.304 29.7553 103.528 28.9388C102.758 28.1206 102.152 27.1609 101.746 26.1127C101.318 25.0243 101.101 23.8644 101.106 22.6949C101.101 21.5321 101.318 20.379 101.746 19.2979C102.16 18.2625 102.769 17.3169 103.542 16.5136C104.334 15.6963 105.28 15.0454 106.327 14.5993C107.442 14.1234 108.644 13.8863 109.856 13.9032C111.575 13.8722 113.261 14.376 114.682 15.3449C116.102 16.3138 117.186 17.7 117.784 19.3119C118.186 20.3606 118.392 21.4743 118.39 22.5974C118.39 22.8387 118.39 23.0568 118.39 23.2517C118.384 23.4058 118.368 23.5593 118.341 23.7112H104.148C104.203 24.5134 104.403 25.2989 104.74 26.0292C105.052 26.6917 105.484 27.2911 106.014 27.7972C106.531 28.2949 107.135 28.6936 107.796 28.9736C108.456 29.2548 109.166 29.3992 109.884 29.3983C110.404 29.398 110.922 29.3254 111.422 29.1825C111.906 29.0454 112.373 28.854 112.814 28.6117C113.244 28.3771 113.636 28.079 113.977 27.7276C114.307 27.3893 114.567 26.9896 114.743 26.5512L117.228 27.2473C116.94 27.886 116.547 28.4719 116.065 28.9806C115.566 29.5111 114.994 29.9681 114.367 30.338C113.697 30.7306 112.979 31.0326 112.23 31.2359C111.438 31.449 110.62 31.5543 109.8 31.5492ZM115.654 21.5324C115.597 20.7536 115.391 19.9929 115.049 19.291C114.733 18.6363 114.302 18.0443 113.775 17.5438C112.967 16.803 111.966 16.3044 110.888 16.105C109.81 15.9056 108.697 16.0134 107.677 16.4161C107.016 16.6792 106.411 17.0668 105.895 17.5577C105.377 18.0579 104.957 18.6504 104.656 19.3049C104.334 20.0071 104.14 20.7616 104.085 21.5324H115.654Z" fill="white"/>
<path id="Vector_7" d="M129.841 31.549C128.568 31.5659 127.316 31.231 126.221 30.5814C125.162 29.9594 124.275 29.0839 123.639 28.0337V31.2358H121.091V7.3667H123.966V17.5645C124.646 16.4924 125.548 15.5785 126.611 14.8845C127.635 14.2689 128.797 13.9219 129.991 13.8757C131.185 13.8294 132.371 14.0855 133.44 14.62C134.364 15.1116 135.181 15.7838 135.841 16.5969C136.523 17.4445 137.044 18.4093 137.379 19.4439C137.736 20.5123 137.917 21.6312 137.915 22.7573C137.922 23.9183 137.712 25.0704 137.296 26.1543C136.905 27.1787 136.33 28.1225 135.597 28.9386C134.876 29.7345 134.003 30.3782 133.029 30.832C132.033 31.3065 130.944 31.5515 129.841 31.549ZM129.145 29.0639C129.959 29.0723 130.763 28.8936 131.497 28.5419C132.205 28.2059 132.839 27.7327 133.363 27.1497C133.887 26.5597 134.298 25.8776 134.574 25.138C134.858 24.3812 135.002 23.5793 134.999 22.7713C135 21.9532 134.861 21.141 134.588 20.3697C134.332 19.6271 133.946 18.9363 133.446 18.3302C132.955 17.7542 132.354 17.2811 131.678 16.938C130.977 16.5762 130.198 16.3921 129.409 16.402C128.816 16.3988 128.227 16.5099 127.676 16.7292C127.133 16.9458 126.622 17.2362 126.158 17.5923C125.69 17.9536 125.273 18.3775 124.919 18.8522C124.559 19.3331 124.246 19.8484 123.987 20.3906V25.3259C124.096 25.8753 124.334 26.3908 124.683 26.8295C125.044 27.2886 125.474 27.6899 125.957 28.0198C126.441 28.3548 126.968 28.6239 127.523 28.8203C128.046 28.9926 128.594 29.075 129.145 29.0639Z" fill="white"/>
<path id="Vector_8" d="M148.064 31.549C146.937 31.5657 145.822 31.3278 144.8 30.8529C143.818 30.3898 142.94 29.734 142.217 28.9247C141.489 28.1083 140.918 27.1643 140.533 26.1403C140.127 25.0636 139.922 23.9218 139.927 22.7713C139.92 21.6077 140.113 20.4517 140.498 19.3534C140.853 18.321 141.396 17.3629 142.099 16.5273C142.772 15.7133 143.606 15.0473 144.549 14.5713C145.52 14.1006 146.588 13.8623 147.667 13.8752C148.973 13.8558 150.255 14.232 151.343 14.9541C152.379 15.6296 153.256 16.5228 153.911 17.5714V7.3667H156.786V27.6926C156.786 28.3702 157.093 28.7182 157.705 28.7368V31.2218L156.967 31.3193C156.789 31.3294 156.61 31.3294 156.431 31.3193C155.88 31.3263 155.347 31.122 154.942 30.7485C154.745 30.5884 154.585 30.387 154.474 30.1584C154.364 29.9299 154.305 29.6798 154.301 29.4259V28.0198C153.647 29.0958 152.727 29.9856 151.63 30.6036C150.533 31.2216 149.296 31.5472 148.036 31.549H148.064ZM148.76 29.0639C149.311 29.0585 149.857 28.9596 150.375 28.7716C150.933 28.5754 151.46 28.3012 151.941 27.9572C152.425 27.6152 152.855 27.2022 153.215 26.732C153.557 26.2947 153.795 25.7853 153.911 25.2424V20.3697C153.704 19.807 153.406 19.2825 153.027 18.8174C152.645 18.3363 152.2 17.9079 151.705 17.5436C151.227 17.177 150.7 16.8794 150.139 16.6595C149.612 16.4571 149.053 16.351 148.489 16.3463C147.688 16.333 146.897 16.5171 146.185 16.8823C145.504 17.2373 144.902 17.7276 144.417 18.3232C143.916 18.9444 143.534 19.6522 143.289 20.4115C143.03 21.1737 142.899 21.9733 142.899 22.7782C142.896 23.6121 143.052 24.4389 143.359 25.2145C143.643 25.9564 144.063 26.6386 144.598 27.2263C145.12 27.7931 145.746 28.254 146.442 28.5836C147.164 28.9152 147.952 29.0794 148.746 29.0639H148.76Z" fill="white"/>
<path id="Vector_9" d="M168.37 31.549C167.205 31.5662 166.05 31.3398 164.979 30.8843C163.907 30.4287 162.942 29.7541 162.147 28.9038C161.392 28.0957 160.799 27.1505 160.399 26.1194C159.984 25.0449 159.774 23.9022 159.78 22.7504C159.774 21.5875 159.992 20.4344 160.42 19.3534C160.831 18.3234 161.431 17.3791 162.188 16.569C162.956 15.7521 163.879 15.0965 164.903 14.6409C166 14.1622 167.187 13.9248 168.384 13.9448C169.547 13.9327 170.701 14.1614 171.772 14.6166C172.843 15.0718 173.808 15.7437 174.607 16.5899C175.364 17.4 175.964 18.3443 176.375 19.3743C176.803 20.4554 177.02 21.6084 177.015 22.7712C177.021 23.9231 176.811 25.0658 176.396 26.1403C175.997 27.1886 175.394 28.1474 174.622 28.9611C173.85 29.7748 172.925 30.4273 171.899 30.8807C170.784 31.3549 169.58 31.5828 168.37 31.549ZM162.717 22.7573C162.708 23.6057 162.857 24.4484 163.156 25.2424C163.433 25.9751 163.844 26.6501 164.367 27.2332C164.872 27.7929 165.482 28.2471 166.163 28.5697C166.854 28.8924 167.607 29.0597 168.37 29.0597C169.132 29.0597 169.885 28.8924 170.576 28.5697C171.266 28.2415 171.883 27.7802 172.393 27.2123C172.925 26.62 173.341 25.9328 173.618 25.1867C173.916 24.3876 174.065 23.5405 174.057 22.6877C174.062 21.8464 173.914 21.0112 173.618 20.2235C173.34 19.4775 172.925 18.7903 172.393 18.1979C171.883 17.6301 171.265 17.1688 170.576 16.8405C169.887 16.5138 169.133 16.3473 168.37 16.3533C167.605 16.3493 166.849 16.5233 166.163 16.8614C165.479 17.2029 164.868 17.676 164.367 18.2536C163.843 18.8493 163.433 19.5358 163.156 20.2792C162.86 21.0717 162.712 21.9115 162.717 22.7573Z" fill="white"/>
<path id="Vector_10" d="M178.888 22.6599C178.881 21.4989 179.091 20.3469 179.507 19.263C179.905 18.2266 180.507 17.28 181.275 16.4786C182.05 15.6694 182.978 15.0213 184.004 14.5713C185.123 14.0927 186.33 13.8555 187.547 13.8752C189.088 13.8345 190.609 14.225 191.939 15.0029C193.137 15.7236 194.103 16.7718 194.724 18.0239L191.939 18.908C191.521 18.1197 190.886 17.4675 190.109 17.0285C189.313 16.5691 188.41 16.3288 187.491 16.3324C186.725 16.3273 185.967 16.4869 185.268 16.8003C184.569 17.1138 183.946 17.5738 183.44 18.1492C182.935 18.738 182.539 19.4122 182.271 20.14C181.671 21.7641 181.671 23.5488 182.271 25.1728C182.554 25.9203 182.969 26.611 183.496 27.2124C183.996 27.7824 184.607 28.2443 185.292 28.5697C185.981 28.8962 186.735 29.0627 187.498 29.057C188.002 29.0583 188.504 28.988 188.988 28.8482C189.456 28.7156 189.905 28.5238 190.324 28.2774C190.715 28.0477 191.073 27.7668 191.389 27.4421C191.68 27.1501 191.903 26.7986 192.044 26.4119L194.828 27.2611C194.565 27.8967 194.195 28.4829 193.735 28.9944C193.258 29.5228 192.701 29.9737 192.085 30.3309C190.704 31.1282 189.135 31.5461 187.54 31.5421C186.37 31.5553 185.21 31.3273 184.132 30.8722C183.054 30.4171 182.082 29.7447 181.275 28.8969C180.504 28.0787 179.899 27.119 179.493 26.0708C179.078 24.9823 178.872 23.8249 178.888 22.6599Z" fill="white"/>
<path id="Vector_11" d="M209.46 31.2218L203.578 22.8687L200.313 25.9385V31.2009H197.438V7.3667H200.313V23.0497L209.07 14.1954H212.237L205.444 21.2538L212.565 31.2218H209.46Z" fill="white"/>
</g>
<defs>
<clipPath id="clip0_3500_10841">
<rect width="211.947" height="34.5471" fill="white" transform="translate(0.625 0.308105)"/>
</clipPath>
</defs>
</svg>
